<svg width="216" height="72" viewBox="0 0 216 72" fill="none" xmlns="http://www.w3.org/2000/svg">
<path d="M216 72H0.157999C0.0579328 70.8096 0 69.6073 0 68.3814C0 47.7829 14.8466 31.0873 33.1639 31.0873C39.0204 31.0873 44.5135 32.7989 49.2903 35.7897C56.0316 14.9129 73.8275 1.41597e-06 94.7255 1.41597e-06C112.29 1.41597e-06 127.663 10.5362 136.126 26.296C139.813 25.0049 143.731 24.306 147.797 24.306C163.513 24.306 177.069 34.7178 183.315 49.7373C185.464 49.1095 187.718 48.7719 190.041 48.7719C202.696 48.7719 213.282 58.698 216 72" fill="#EAFCFC"/>
</svg>
