<svg id="Capa_1" enable-background="new 0 0 512 512" height="512" viewBox="0 0 512 512" width="512" xmlns="http://www.w3.org/2000/svg" xmlns:xlink="http://www.w3.org/1999/xlink"><linearGradient id="SVGID_1_" gradientUnits="userSpaceOnUse" x1="0" x2="512" y1="256" y2="256"><stop offset="0" stop-color="#ffdbed" stop-opacity="0"/><stop offset="1" stop-color="#ffdbed"/></linearGradient><linearGradient id="SVGID_2_" gradientUnits="userSpaceOnUse" x1="256" x2="256" y1="83.87" y2="428.13"><stop offset=".0028" stop-color="#ff7eb8" stop-opacity="0"/><stop offset="1" stop-color="#ff7eb8" stop-opacity=".6"/></linearGradient><g><g><path d="m418.32 2.5c-55.666-9.521-178.298 12.183-200.004 105.017-14.431 61.722-14.007 112.075-50.427 113.02-21.67.562-32.97-44.31-62.889-48.001-39.047-4.817-66.145 27.695-83.057 57.138-37.205 64.772-25.571 174.918 23.354 228.632 118.488 130.086 259.197-5.951 319.358-112.309 38.585-68.213 125.637-123.352 143.767-200.248 15.178-64.376-18.503-131.003-90.102-143.249z" fill="url(#SVGID_1_)"/></g><g><g><g><g><path d="m470.47 98.87v314.26c0 8.29-6.72 15-15 15h-398.94c-8.28 0-15-6.71-15-15v-314.26c0-8.29 6.72-15 15-15h398.94c8.28 0 15 6.71 15 15z" fill="#fff"/><path d="m98.4 153.18c0 31.41-25.46 56.88-56.87 56.88v-56.88z" fill="#02ffb3"/><path d="m256.359 323.861-104.269 104.269h-95.56c-8.284 0-15-6.716-15-15v-98.3l102.899-102.899c30.909-30.909 81.021-30.909 111.93 0 30.908 30.909 30.908 81.022 0 111.93z" fill="#9fb0fe"/><path d="m470.47 153.18v-54.313c0-8.284-6.716-15-15-15h-398.94c-8.284 0-15 6.716-15 15v54.313z" fill="#ff7eb8"/></g><g><g><circle cx="85.623" cy="120.768" fill="#ff5ba8" r="10.901"/><circle cx="120.424" cy="120.768" fill="#fff" r="10.901"/><circle cx="155.224" cy="120.768" fill="#02ffb3" r="10.901"/></g><path d="m432.278 133.015h-136.159v-24.495h136.159c2.761 0 5 2.239 5 5v14.496c0 2.761-2.239 4.999-5 4.999z" fill="#ffdbed"/><path d="m296.789 108.831c-5.286-5.286-13.887-5.286-19.173 0s-5.286 13.887 0 19.173c4.037 4.037 10.003 4.98 14.953 2.852l4.348 4.348c1.952 1.952 5.119 1.952 7.071 0 1.953-1.952 1.953-5.119 0-7.071l-4.348-4.348c2.129-4.951 1.186-10.917-2.851-14.954zm-12.102 7.071c1.387-1.387 3.644-1.387 5.031 0s1.387 3.644 0 5.031-3.644 1.387-5.031 0-1.387-3.644 0-5.031z" fill="#fff"/></g></g><path d="m246.514 349.349c-.419-1.495-2.172-2.179-3.473-1.332-2.402 1.561-4.527 2.341-6.377 2.341-2.156 0-3.605-.827-4.35-2.486-.746-1.654-1.118-4.474-1.118-8.451v-62.974c0-9.112-.622-16.321-1.864-21.626-1.243-5.302-3.69-9.776-7.333-13.423-3.977-3.977-8.949-6.793-14.915-8.452-12.955-3.601-26.79-3.521-39.909-.844-10.894 2.223-22.951 6.324-29.567 15.883-8.446 12.203-.683 30.947 14.789 30.948 19.226.001 26.78-24.766 10.187-35.044 4.514-1.81 13.106-4.311 21.626-1.643 6.627 2.075 11.175 8.261 11.191 15.206v.104 19.389c0 4.474-2.113 7.997-6.338 10.565-17.478 10.619-41.969 11.434-55.432 28.337-6.694 8.404-7.722 20.738-3.885 30.673 4.903 12.695 16.617 17.675 29.612 17.675 16.071 0 28.252-6.711 36.54-20.134.163 6.133 2.07 11.023 5.717 14.666 3.644 3.647 10.025 5.468 19.14 5.468 10.172 0 18.869-2.734 26.085-8.204.763-.578 1.098-1.563.839-2.485zm-51.114-20.533c-4.809 6.797-9.08 10.717-16.157 12.224-5.061 1.078-16.157-.696-16.157-12.643 0-11.476 13.174-16.906 19.637-21.05 6.463-3.977 10.689-7.62 12.678-10.937v32.406z" fill="#4369fd"/><g><path d="m267.426 203.699h-97.757c-6.022 0-10.904-4.882-10.904-10.904 0-6.022 4.882-10.904 10.904-10.904h97.757c6.022 0 10.904 4.882 10.904 10.904-.001 6.023-4.882 10.904-10.904 10.904z" fill="#d2deff"/><path d="m383.543 203.699h-46.757c-6.022 0-10.904-4.882-10.904-10.904 0-6.022 4.882-10.904 10.904-10.904h46.757c6.022 0 10.904 4.882 10.904 10.904 0 6.023-4.882 10.904-10.904 10.904z" fill="#9fb0fe"/><g><path d="m293.858 211.264c-.807 0-1.624-.195-2.383-.608-2.427-1.318-3.324-4.355-2.005-6.78l14.078-25.898c1.318-2.427 4.353-3.327 6.78-2.005 2.427 1.318 3.324 4.354 2.005 6.78l-14.078 25.898c-.905 1.668-2.623 2.613-4.397 2.613z" fill="#ff7eb8"/></g></g><g><g><g><path d="m412.505 272.875h-104.681c-2.761 0-5 2.239-5 5s2.239 5 5 5h104.681c2.761 0 5-2.239 5-5s-2.239-5-5-5z" fill="#8399fe"/></g><g><path d="m388.505 253.448h-80.681c-2.761 0-5 2.239-5 5s2.239 5 5 5h80.681c2.761 0 5-2.239 5-5 0-2.762-2.239-5-5-5z" fill="#8399fe"/></g><g><path d="m319.505 230.102h-11.681c-2.761 0-5 2.239-5 5s2.239 5 5 5h11.681c2.761 0 5-2.239 5-5s-2.239-5-5-5z" fill="#ff7eb8"/></g><g><path d="m139.458 370.951h-32.681c-2.761 0-5 2.239-5 5s2.239 5 5 5h32.681c2.761 0 5-2.239 5-5s-2.238-5-5-5z" fill="#fff"/></g><g><path d="m256.228 253.448h-32.681c-2.761 0-5 2.239-5 5s2.239 5 5 5h32.681c2.761 0 5-2.239 5-5 0-2.762-2.239-5-5-5z" fill="#fff"/></g></g><g><g><path d="m412.505 334.251h-104.681c-2.761 0-5 2.239-5 5s2.239 5 5 5h104.681c2.761 0 5-2.239 5-5 0-2.762-2.239-5-5-5z" fill="#8399fe"/></g><g><path d="m412.505 314.823h-104.681c-2.761 0-5 2.239-5 5s2.239 5 5 5h104.681c2.761 0 5-2.239 5-5s-2.239-5-5-5z" fill="#8399fe"/></g></g></g><path d="m361.698 390.097h-51.245c-2.761 0-5-2.239-5-5v-9.146c0-2.761 2.239-5 5-5h51.245c2.762 0 5 2.239 5 5v9.146c0 2.761-2.238 5-5 5z" fill="#4369fd"/><g><circle cx="223.549" cy="242.747" fill="#ff5ba8" r="5.002"/></g><g><ellipse cx="139.457" cy="359.191" fill="#ff5ba8" rx="5.002" ry="5.002" transform="matrix(.159 -.987 .987 .159 -237.339 439.757)"/></g></g><path d="m273.651 59.229c-7.88 0-14.291-6.411-14.291-14.292 0-7.88 6.411-14.291 14.291-14.291 7.881 0 14.292 6.411 14.292 14.291s-6.411 14.292-14.292 14.292zm0-18.583c-2.366 0-4.291 1.925-4.291 4.291s1.925 4.292 4.291 4.292 4.292-1.926 4.292-4.292-1.925-4.291-4.292-4.291z" fill="#6583fe"/><path d="m223.549 59.87c-7.88 0-14.292-6.411-14.292-14.291 0-7.881 6.411-14.292 14.292-14.292 7.88 0 14.291 6.411 14.291 14.292.001 7.88-6.41 14.291-14.291 14.291zm0-18.583c-2.366 0-4.292 1.926-4.292 4.292s1.925 4.291 4.292 4.291c2.366 0 4.291-1.925 4.291-4.291s-1.924-4.292-4.291-4.292z" fill="#01eca5"/><path d="m97.623 479.13c-2.761 0-5-2.238-5-5 0-3.309-2.691-6-6-6-2.761 0-5-2.238-5-5s2.239-5 5-5c3.309 0 6-2.691 6-6 0-2.762 2.239-5 5-5s5 2.238 5 5c0 3.309 2.691 6 6 6 2.761 0 5 2.238 5 5s-2.239 5-5 5c-3.309 0-6 2.691-6 6 0 2.762-2.239 5-5 5z" fill="#ff5ba8"/><path d="m324.505 45.018c-2.762 0-5-2.238-5-5 0-3.309-2.691-6-6-6-2.762 0-5-2.238-5-5s2.238-5 5-5c3.309 0 6-2.691 6-6 0-2.762 2.238-5 5-5s5 2.238 5 5c0 3.309 2.691 6 6 6 2.762 0 5 2.238 5 5s-2.238 5-5 5c-3.309 0-6 2.691-6 6 0 2.761-2.238 5-5 5z" fill="#01eca5"/><path d="m144.459 488.421c-2.761 0-5-2.238-5-5 0-3.309-2.691-6-6-6-2.761 0-5-2.238-5-5s2.239-5 5-5c3.309 0 6-2.691 6-6 0-2.762 2.239-5 5-5s5 2.238 5 5c0 3.309 2.691 6 6 6 2.761 0 5 2.238 5 5s-2.239 5-5 5c-3.309 0-6 2.691-6 6 0 2.762-2.239 5-5 5z" fill="#6583fe"/></g><path d="m470.47 98.87v314.26c0 8.29-6.72 15-15 15h-398.94c-8.28 0-15-6.71-15-15v-314.26c0-8.29 6.72-15 15-15h398.94c8.28 0 15 6.71 15 15z" fill="url(#SVGID_2_)"/></g></svg>