<svg width="733" height="458" viewBox="0 0 733 458" fill="none" xmlns="http://www.w3.org/2000/svg">
<path d="M0 458H733V9.17912e-06H0V458Z" fill="white"/>
<path d="M672.887 416.643L87.8831 416.441C87.8831 416.441 8.31163 316.07 47.2011 212.743C72.5487 145.39 167.633 108.484 221.295 145.39C244.149 161.111 317.474 145.921 356.625 80.8438C373.862 52.1936 400.82 33.9767 431.65 25.1945C432.596 24.9243 433.544 24.6632 434.499 24.4136C435.459 24.1594 436.421 23.9144 437.388 23.6763C463.338 17.3513 491.701 17.4772 519.138 23.4747C521.133 23.9121 523.126 24.3793 525.112 24.8785C553.289 31.9546 580.218 45.2526 602.226 64.1428C604.178 65.8168 606.093 67.5366 607.964 69.2976C645.681 104.822 666.65 158.028 649.889 225.343C626.497 319.304 721.082 322.718 672.887 416.643" fill="#EAFCFC"/>
<path d="M519.138 23.4748C515.297 22.6343 511.437 21.9107 507.568 21.3015C511.437 21.9084 515.297 22.6343 519.138 23.4748ZM507.499 21.2924C507.488 21.2901 507.474 21.2878 507.463 21.2855C507.474 21.2878 507.488 21.2901 507.499 21.2924Z" fill="#405996"/>
<path d="M114.863 288.542H93.7832V281.1H114.931C116.575 281.1 117.908 282.433 117.908 284.077V285.499C117.908 287.18 116.545 288.542 114.863 288.542" fill="#FCECDB"/>
<path d="M135.901 284.161V285.281C135.901 285.881 135.74 286.44 135.458 286.923C134.893 287.892 133.842 288.542 132.639 288.542H93.1373C92.8759 288.542 92.6641 288.332 92.6641 288.07V287.903C92.6641 287.642 92.8759 287.429 93.1373 287.429H117.217C117.346 287.274 117.459 287.104 117.555 286.923C117.781 286.497 117.908 286.014 117.908 285.499V284.077C117.908 283.813 117.874 283.559 117.81 283.319C117.703 282.909 117.51 282.533 117.252 282.213H93.1373C92.8759 282.213 92.6641 282.002 92.6641 281.741V281.574C92.6641 281.313 92.8759 281.1 93.1373 281.1H132.838C134.237 281.1 135.417 282.039 135.783 283.319C135.86 283.587 135.901 283.871 135.901 284.161" fill="#699DEE"/>
<path d="M135.783 283.319H117.81C117.703 282.909 117.51 282.533 117.252 282.213H93.1373C92.8759 282.213 92.6641 282.002 92.6641 281.741V281.574C92.6641 281.313 92.8759 281.1 93.1373 281.1H132.838C134.237 281.1 135.417 282.039 135.783 283.319" fill="#548EE2"/>
<path d="M93.7832 284.821L96.7081 284.947L93.7832 285.023V284.821Z" fill="#F4D2B8"/>
<path d="M93.7832 285.989L100.742 286.115L93.7832 286.19V285.989Z" fill="#F4D2B8"/>
<path d="M98.8107 294.318H121.251V288.528H98.6286C97.0797 288.528 95.8242 289.783 95.8242 291.331C95.8242 292.98 97.1613 294.318 98.8107 294.318" fill="#2B478B"/>
<path d="M119.963 294.318H145.502V288.528H119.898C118.324 288.528 117.047 289.804 117.047 291.377V291.402C117.047 293.012 118.353 294.318 119.963 294.318" fill="#FCECDB"/>
<path d="M115.342 294.318H146.389C146.628 294.318 146.822 294.123 146.822 293.885C146.822 293.644 146.628 293.452 146.389 293.452H115.342C115.102 293.452 114.909 293.644 114.909 293.885C114.909 294.123 115.102 294.318 115.342 294.318Z" fill="#2B478B"/>
<path d="M115.342 289.394H146.389C146.628 289.394 146.822 289.199 146.822 288.961C146.822 288.721 146.628 288.528 146.389 288.528H115.342C115.102 288.528 114.909 288.721 114.909 288.961C114.909 289.199 115.102 289.394 115.342 289.394Z" fill="#2B478B"/>
<path d="M145.502 291.423L142.052 291.519L145.502 291.579V291.423Z" fill="#F4D2B8"/>
<path d="M145.502 290.09L137.295 290.186L145.502 290.246V290.09Z" fill="#F4D2B8"/>
<path d="M137.379 290.168C137.379 290.168 137.731 290.418 137.847 290.825C137.868 290.896 137.881 290.974 137.884 291.054C137.903 291.597 137.884 292.827 137.884 292.827L138.922 292.213L139.958 292.827V291.16C139.958 290.846 139.869 290.539 139.704 290.338C139.624 290.241 139.527 290.168 139.417 290.168H137.379Z" fill="#F99746"/>
<path d="M137.379 290.168C137.379 290.168 137.731 290.418 137.847 290.825L139.928 290.851C139.928 290.851 139.847 290.264 139.417 290.168H137.379Z" fill="#ED7D2B"/>
<path d="M295.241 415.598L295.404 415.594C296.732 415.566 297.756 414.284 297.632 412.811L288.768 308.442L281.034 309.255L293.761 414.188C293.862 415.007 294.497 415.614 295.241 415.598" fill="#57ACAC"/>
<path d="M209.893 415.598L209.731 415.594C208.402 415.566 207.376 414.284 207.501 412.811L216.364 308.442L224.099 309.255L211.372 414.188C211.272 415.007 210.636 415.614 209.893 415.598" fill="#57ACAC"/>
<path d="M357.77 415.598L357.933 415.594C359.262 415.566 360.288 414.284 360.162 412.811L351.299 308.442L343.564 309.255L356.293 414.188C356.391 415.007 357.028 415.614 357.77 415.598" fill="#489696"/>
<path d="M212.533 293.26L196.799 201.653C194.78 189.25 203.497 177.91 214.815 178.215L245.159 179.03C255.625 179.314 264.725 187.574 267.634 199.431L290.653 293.26H212.533Z" fill="#57ACAC"/>
<path d="M222.051 293.26L206.318 201.653C204.299 189.25 213.015 177.91 224.333 178.215L254.676 179.03C265.144 179.314 274.245 187.574 277.154 199.431L300.173 293.26H222.051Z" fill="#489696"/>
<path d="M217.295 309.968H336.589C339.207 309.968 341.351 307.826 341.351 305.207V298.021C341.351 295.403 339.207 293.26 336.589 293.26H212.533V305.207C212.533 307.826 214.676 309.968 217.295 309.968Z" fill="#57ACAC"/>
<path d="M273.558 309.968H349.476C351.588 309.968 353.313 308.243 353.313 306.134V297.095C353.313 294.986 351.588 293.26 349.476 293.26H273.558C271.446 293.26 269.721 294.986 269.721 297.095V306.134C269.721 308.243 271.446 309.968 273.558 309.968Z" fill="#489696"/>
<path d="M552.879 349.076C552.879 349.076 542.37 336.82 552.231 329.032C552.231 329.032 559.435 324.672 565.308 325.027C565.308 325.027 556.986 338.98 559.678 340.367C562.371 341.755 567.832 324.152 567.832 324.152C567.832 324.152 584.224 322.563 589.497 325.098C589.497 325.098 575.483 336.561 578.435 337.244C581.386 337.926 596.525 326.673 596.525 326.673C596.525 326.673 611.78 329.27 610.967 338.574C610.154 347.878 604.897 350.752 602.585 350.505C600.277 350.258 586.76 345.101 586.464 346.992C586.171 348.886 594.307 355.071 600.004 355.36C600.004 355.36 589.247 367.22 582.098 363.796C574.949 360.375 574.34 354.948 569.882 352.914C565.427 350.878 561.622 350.883 563.462 352.96C565.301 355.035 573.366 357.052 575.916 361.559C578.463 366.066 580.751 369.104 573.355 367.991C565.958 366.879 553.935 361.47 553.406 355.273C552.879 349.076 552.879 349.076 552.879 349.076" fill="#57ACAC"/>
<path d="M603.472 338.826C603.472 338.826 562.03 337.23 552.879 349.076C552.879 349.076 550.856 355.138 544.628 360.654L543.657 363.299C543.657 363.299 550.838 355.731 553.406 355.273C553.406 355.273 549.388 340.594 603.472 338.826" fill="#2B7B7B"/>
<path d="M544.628 360.654C544.628 360.654 535.731 367.231 535.115 378.981L536.73 379.125C536.73 379.125 539.57 366.977 544.704 362.225C549.839 357.474 544.628 360.654 544.628 360.654Z" fill="#2B7B7B"/>
<path d="M516.133 333.662C516.133 333.662 532.852 324.301 525.048 311.598C525.048 311.598 518.808 303.798 512.12 301.792C512.12 301.792 515.686 320.735 512.12 321.182C508.553 321.626 509.666 299.786 509.666 299.786C509.666 299.786 492.056 291.318 485.145 291.986C485.145 291.986 496.069 310.483 492.503 310.038C488.936 309.592 476.674 290.871 476.674 290.871C476.674 290.871 458.62 287.53 455.72 298.227C452.822 308.923 457.504 314.273 460.18 314.941C462.855 315.61 480.019 315.386 479.572 317.616C479.128 319.844 467.535 323.41 461.071 321.404C461.071 321.404 468.204 339.009 477.568 338.118C486.93 337.228 489.827 331.432 495.622 330.987C501.42 330.541 505.655 332.1 502.758 333.662C499.858 335.222 490.049 334.173 485.37 338.151C480.688 342.131 476.899 344.581 485.592 346.365C494.287 348.146 509.891 347.033 513.011 340.347C516.133 333.662 516.133 333.662 516.133 333.662" fill="#57ACAC"/>
<path d="M463.968 301.57C463.968 301.57 510.782 316.723 516.133 333.662C516.133 333.662 515.908 341.237 520.59 349.93V353.274C520.59 353.274 515.686 341.906 513.011 340.347C513.011 340.347 523.488 325.638 463.968 301.57" fill="#2B7B7B"/>
<path d="M520.59 349.93C520.59 349.93 527.81 360.89 523.694 374.232L521.836 373.732C521.836 373.732 523.639 359.038 519.862 351.648C516.085 344.256 520.59 349.93 520.59 349.93Z" fill="#2B7B7B"/>
<path d="M542.732 320.753C542.732 320.753 520.691 308.415 530.976 291.668C530.976 291.668 539.204 281.386 548.021 278.743C548.021 278.743 543.318 303.714 548.021 304.302C552.721 304.888 551.253 276.098 551.253 276.098C551.253 276.098 574.466 264.937 583.576 265.816C583.576 265.816 569.177 290.2 573.879 289.612C578.58 289.025 594.742 264.348 594.742 264.348C594.742 264.348 618.544 259.942 622.363 274.042C626.184 288.144 620.013 295.195 616.487 296.076C612.96 296.956 590.335 296.663 590.922 299.601C591.51 302.539 606.789 307.238 615.312 304.595C615.312 304.595 605.909 327.802 593.567 326.627C581.226 325.452 577.405 317.815 569.766 317.227C562.124 316.641 556.542 318.697 560.363 320.753C564.181 322.808 577.112 321.427 583.282 326.671C589.453 331.915 594.449 335.146 582.989 337.498C571.527 339.847 550.959 338.377 546.846 329.565C542.732 320.753 542.732 320.753 542.732 320.753" fill="#57ACAC"/>
<path d="M611.492 278.45C611.492 278.45 549.782 298.426 542.731 320.753C542.731 320.753 543.025 330.74 536.854 342.197V346.603C536.854 346.603 543.318 331.622 546.845 329.565C546.845 329.565 533.033 310.176 611.492 278.45" fill="#2B7B7B"/>
<path d="M536.854 342.197C536.854 342.197 527.336 356.645 532.763 374.232L535.212 373.574C535.212 373.574 532.834 354.203 537.814 344.462C542.791 334.718 536.854 342.197 536.854 342.197" fill="#2B7B7B"/>
<path d="M541.987 412.367C565.83 412.367 585.158 393.044 585.158 369.21H498.818C498.818 393.044 518.146 412.367 541.987 412.367" fill="#57ACAC"/>
<path d="M585.754 414.563H498.222C498.222 411.623 500.607 409.239 503.548 409.239H580.428C583.369 409.239 585.754 411.623 585.754 414.563" fill="#2B7B7B"/>
<path d="M586.141 370.533H497.398V369.21H586.141V370.533Z" fill="#2B7B7B"/>
<path d="M198.55 296.225V299.227C198.55 300.279 198.21 301.137 197.795 301.137H88.2012C87.7857 301.137 87.4453 300.279 87.4453 299.227V296.225C87.4453 295.176 87.7857 294.315 88.2012 294.315H197.795C198.21 294.315 198.55 295.176 198.55 296.225Z" fill="#728FD6"/>
<path d="M198.55 296.225V299.227C198.55 300.279 198.238 301.137 197.857 301.137H110.852C110.47 301.137 110.158 300.279 110.158 299.227V296.225C110.158 295.176 110.47 294.315 110.852 294.315H197.857C198.238 294.315 198.55 295.176 198.55 296.225" fill="#7A98E2"/>
<path d="M170.812 414.51H93.0078V301.137H170.812V414.51Z" fill="#6683D3"/>
<path d="M192.616 414.51H114.812V301.137H192.616V414.51Z" fill="#7A98E2"/>
<path d="M119.743 407.503H187.687V305.09H119.743V407.503ZM188.436 408.252H118.993V304.341H188.436V408.252Z" fill="#6683D3"/>
<path d="M188.062 339.465H119.368V338.716H188.062V339.465Z" fill="#6683D3"/>
<path d="M188.062 374.509H119.368V373.76H188.062V374.509Z" fill="#6683D3"/>
<path d="M160.754 311.042H148.007C147.388 311.042 146.882 310.535 146.882 309.917C146.882 309.299 147.388 308.793 148.007 308.793H160.754C161.372 308.793 161.879 309.299 161.879 309.917C161.879 310.535 161.372 311.042 160.754 311.042Z" fill="#6683D3"/>
<path d="M160.754 345.311H148.007C147.388 345.311 146.882 344.805 146.882 344.187C146.882 343.569 147.388 343.063 148.007 343.063H160.754C161.372 343.063 161.879 343.569 161.879 344.187C161.879 344.805 161.372 345.311 160.754 345.311Z" fill="#6683D3"/>
<path d="M160.754 381.035H148.007C147.388 381.035 146.882 380.529 146.882 379.911C146.882 379.293 147.388 378.787 148.007 378.787H160.754C161.372 378.787 161.879 379.293 161.879 379.911C161.879 380.529 161.372 381.035 160.754 381.035Z" fill="#6683D3"/>
<path d="M117.008 270.396L119.293 270.763L123.617 243.844L121.332 243.475L117.008 270.396Z" fill="#B5453C"/>
<path d="M123.236 238.92L123.617 243.844L121.332 243.475L123.236 238.92Z" fill="#EFCBAB"/>
<path d="M101.563 272.977L103.838 272.556L98.8561 245.749L96.5813 246.173L101.563 272.977Z" fill="#B5453C"/>
<path d="M96.8415 241.242L98.8561 245.749L96.5813 246.173L96.8415 241.242Z" fill="#EFCBAB"/>
<path d="M104.447 265.115L106.722 264.692L101.74 237.887L99.4656 238.309L104.447 265.115Z" fill="#B5453C"/>
<path d="M99.7258 233.378L101.74 237.887L99.4656 238.309L99.7258 233.378Z" fill="#EFCBAB"/>
<path d="M96.8262 281.1H115.051V254.84H96.8262V281.1Z" fill="#D74C8A"/>
<path d="M105.939 281.1H124.164V254.84H105.939V281.1Z" fill="#F58DBC"/>
<path d="M442.796 208.649H414.708C414.708 202.91 419.361 198.257 425.103 198.257H431.65H444.826L442.796 208.649Z" fill="#D1CDD9"/>
<path d="M476.727 229.71H474.478V191.007L497.48 132.33L456.412 100.515L457.788 98.7379L500.188 131.586L476.727 191.433V229.71" fill="#163560"/>
<path d="M451.769 104.568C450.735 103.835 450.493 102.404 451.226 101.371L454.646 96.5486C455.379 95.5159 456.81 95.2731 457.843 96.0036C458.876 96.7364 459.119 98.1677 458.388 99.2005L454.966 104.026C454.236 105.058 452.804 105.301 451.769 104.568" fill="#163560"/>
<path d="M495.345 131.657C495.345 130.012 496.679 128.68 498.321 128.68C499.966 128.68 501.299 130.012 501.299 131.657C501.299 133.299 499.966 134.631 498.321 134.631C496.679 134.631 495.345 133.299 495.345 131.657Z" fill="#163560"/>
<path d="M486.52 235.034H463.895V232.751C463.895 230.456 465.755 228.595 468.05 228.595H482.195C484.584 228.595 486.52 230.53 486.52 232.918V235.034" fill="#163560"/>
<path d="M477.966 229.71H473.216V193.748H477.966V229.71Z" fill="#163560"/>
<path d="M456.861 137.95C456.755 138.069 456.648 138.188 456.538 138.3L456.512 138.327C456.409 138.444 456.304 138.554 456.196 138.664C453.125 141.33 442.943 136.553 433.093 127.748C423.246 118.943 417.361 109.357 419.668 106.009C419.764 105.887 419.862 105.77 419.968 105.654L419.991 105.628C420.091 105.507 420.197 105.386 420.305 105.267C429.334 95.1746 444.835 94.3113 454.93 103.334C465.024 112.361 465.89 127.855 456.861 137.95" fill="#D74C8A"/>
<path d="M456.538 138.302L456.515 138.325C456.48 138.371 456.448 138.41 456.414 138.449C456.347 138.529 456.274 138.595 456.194 138.664C453.125 141.327 442.94 136.555 433.093 127.745C423.246 118.945 417.361 109.359 419.665 106.011C419.727 105.926 419.789 105.841 419.856 105.768C419.89 105.729 419.924 105.69 419.97 105.656L419.991 105.628C422.082 103.65 427.76 105.413 434.392 109.707C437.214 111.534 440.21 113.82 443.176 116.472C445.504 118.558 447.611 120.681 449.444 122.755C455.42 129.538 458.432 135.797 456.538 138.302" fill="#F58DBC"/>
<path d="M449.443 122.755C447.707 124.189 445.476 125.043 443.041 125.043C437.461 125.043 432.937 120.518 432.937 114.94C432.937 113.023 433.471 111.23 434.392 109.707C437.214 111.534 440.21 113.82 443.176 116.472C445.504 118.558 447.611 120.681 449.443 122.755" fill="#FFEBF4"/>
<path d="M450.17 223.648H355.729L362.054 158.738H456.494L450.17 223.648" fill="#2A4E96"/>
<path d="M453.585 223.648H359.145L365.469 158.738H459.909L453.585 223.648" fill="#163560"/>
<path d="M411.749 233.5H394.991L400.472 196.093H417.23L411.749 233.5Z" fill="#2A4E96"/>
<path d="M385.146 232.375H419.551V235.071H385.146V232.375Z" fill="#2A4E96"/>
<path d="M536.712 66.3115C536.712 65.9016 537.046 65.5673 537.456 65.5673C537.866 65.5673 538.198 65.9016 538.198 66.3115C538.198 66.7214 537.866 67.0535 537.456 67.0535C537.046 67.0535 536.712 66.7214 536.712 66.3115Z" fill="white"/>
<path d="M494.601 67.7977C494.601 67.3878 494.935 67.0534 495.345 67.0534C495.755 67.0534 496.09 67.3878 496.09 67.7977C496.09 68.2076 495.755 68.5419 495.345 68.5419C494.935 68.5419 494.601 68.2076 494.601 67.7977Z" fill="white"/>
<path d="M508.817 86.6284C508.817 86.2185 509.151 85.8864 509.561 85.8864C509.971 85.8864 510.305 86.2185 510.305 86.6284C510.305 87.0406 509.971 87.3727 509.561 87.3727C509.151 87.3727 508.817 87.0406 508.817 86.6284Z" fill="white"/>
<path d="M548.948 53.3363C548.948 52.9241 549.28 52.5921 549.69 52.5921C550.103 52.5921 550.435 52.9241 550.435 53.3363C550.435 53.7462 550.103 54.0783 549.69 54.0783C549.28 54.0783 548.948 53.7462 548.948 53.3363Z" fill="white"/>
<path d="M573.554 77.9356C573.554 77.5257 573.889 77.1913 574.299 77.1913C574.709 77.1913 575.041 77.5257 575.041 77.9356C575.041 78.3455 574.709 78.6798 574.299 78.6798C573.889 78.6798 573.554 78.3455 573.554 77.9356Z" fill="white"/>
<path d="M554.709 125.043C554.709 124.631 555.041 124.299 555.454 124.299C555.864 124.299 556.196 124.631 556.196 125.043C556.196 125.453 555.864 125.785 555.454 125.785C555.041 125.785 554.709 125.453 554.709 125.043Z" fill="white"/>
<path d="M540.92 145.882C540.92 145.472 541.252 145.14 541.664 145.14C542.074 145.14 542.406 145.472 542.406 145.882C542.406 146.294 542.074 146.626 541.664 146.626C541.252 146.626 540.92 146.294 540.92 145.882Z" fill="white"/>
<path d="M584.79 118.991C584.79 118.581 585.124 118.246 585.534 118.246C585.944 118.246 586.276 118.581 586.276 118.991C586.276 119.401 585.944 119.735 585.534 119.735C585.124 119.735 584.79 119.401 584.79 118.991Z" fill="white"/>
<path d="M324.172 385.952C324.172 385.952 321.093 377.573 314.982 369.013C313.039 366.292 320.119 364.687 321.741 369.553C323.363 374.419 327.42 388.07 327.42 388.07L324.172 385.952Z" fill="#163560"/>
<path d="M361.635 404.606C361.635 404.606 352.255 388.533 342.689 393.01C338.449 394.995 338.575 400.709 344.636 404.966C347.955 407.297 361.266 414.526 361.266 414.526L361.635 404.606Z" fill="#163560"/>
<path d="M340.637 363.164C340.637 363.164 336.362 374.603 337.269 378.846C338.176 383.09 336.026 390.543 337.762 394.221C339.5 397.899 335.941 401.045 332.963 402.399C331.834 402.912 327.903 393.037 327.149 390.031C326.396 387.024 323.942 380.8 321.425 375.981C318.908 371.161 321.017 367.277 324.655 365.505C328.292 363.732 333.361 354.029 333.361 354.029L340.637 363.164" fill="#FDBD90"/>
<path d="M320.617 131.734C316.251 126.399 308.139 124.963 308.139 124.963C292.165 111.548 278.329 130.631 275.592 137.634C272.852 144.632 271.196 156.524 259.652 162.175C239.146 172.215 261.415 189.367 261.415 189.367C270.713 168.846 314.079 205.447 312.091 207.075C352.623 224.995 330.546 143.865 320.617 131.734" fill="#163560"/>
<path d="M284.056 193.239C284.056 193.239 291.597 206.794 302.168 218.042C307.752 223.985 314.184 229.284 320.795 231.592C324.023 232.719 327.291 233.138 330.526 232.57C332.587 232.211 331.692 220.03 328.824 210.772C325.047 198.577 313.273 168.274 313.273 168.274L306.536 171.148C306.536 171.148 315.879 209.311 314.766 209.471L304.884 184.473L284.056 193.239" fill="#F0AE82"/>
<path d="M269.659 255.076C269.659 255.076 342.05 259.345 351.87 266.018C368.211 277.122 344.748 368.335 344.748 368.335C344.748 368.335 325.328 368.953 323.784 363.815C323.784 363.815 327.278 316.155 324.22 307.923C321.164 299.69 323.049 288.279 323.049 288.279C323.049 288.279 285.068 294.073 273.006 291.222C260.943 288.368 269.659 255.076 269.659 255.076" fill="#E05392"/>
<path d="M353.388 380.914C353.388 380.914 357.505 392.41 360.936 395.066C364.367 397.723 368.559 404.952 372.261 406.642C375.963 408.332 376.503 409.221 375.101 412.175C374.57 413.297 363.224 415.184 360.709 413.372C358.192 411.559 357.977 407.94 346.982 403.097C342.006 400.906 341.053 396.71 342.689 393.01C344.324 389.309 341.935 378.626 341.935 378.626L353.388 380.914" fill="#FDBD90"/>
<path d="M227.084 252.404C227.084 252.404 326.776 270.797 333.639 278.723C340.504 286.648 357.102 385.439 357.102 385.439C357.102 385.439 349.169 389.888 341.935 385.771C341.935 385.771 324.744 349.962 318.498 337.113C309.033 317.65 313.023 306.91 311.516 306.567C310.011 306.223 248.478 300.308 230.812 288.622C220.403 281.734 227.084 252.404 227.084 252.404Z" fill="#FA7FB6"/>
<path d="M304.958 220.877C301.911 224.026 303.354 225.453 303.354 226.788C303.354 231.89 302.631 233.092 299.172 234.913C294.987 237.113 290.115 238.263 289.001 241.611L288.999 241.618C288.768 242.312 288.699 243.104 288.832 244.018C291.345 261.328 275.148 270.415 266.32 274.452C260.852 276.95 250.697 279.758 241.517 280.756C231.296 281.869 222.279 280.74 222.263 274.452C222.101 220.08 242.735 189.568 257.853 178.189C263.11 174.235 278.934 169.863 288.832 174.317C293.516 176.424 300.631 179.188 304.885 184.475C309.475 190.18 314.769 209.473 314.769 209.473C313.037 219.634 304.958 220.877 304.958 220.877" fill="#FFE6F2"/>
<path d="M259.651 197.485C259.736 197.872 258.227 211.534 267.304 225.164C270.614 230.131 256.014 228.1 265.845 238.735C266.961 235.384 294.989 237.113 299.172 234.913L280.537 218.663L259.651 197.485" fill="#F2C6DB"/>
<path d="M312.744 171.471C312.744 171.471 317.591 165.7 318.44 163.95C319.29 162.203 317.7 154.669 315.724 154.719C314.478 154.749 312.943 159.313 311.58 160.971C310.217 162.629 304.287 164.988 306.795 171.958C307.079 172.744 312.744 171.471 312.744 171.471" fill="#E5925A"/>
<path d="M300.418 183.014C301.785 185.066 300.115 190.816 292.364 189.026C287.274 187.851 277.358 179.598 279.147 175.386C279.999 173.385 284.878 168.686 287.945 156.466L288.832 156.89L303.758 164.005C303.758 164.005 302.14 168.858 300.942 173.516C299.934 177.422 299.852 182.167 300.418 183.014" fill="#FDBD90"/>
<path d="M303.757 164.005C303.757 164.005 302.14 168.858 300.942 173.516C292.208 171.026 289.604 161.821 288.832 156.89L303.757 164.005Z" fill="#F4A269"/>
<path d="M312.256 166.678C312.256 166.678 291.333 171.53 288.511 158.457C285.689 145.385 281.087 137.208 294.327 133.557C307.565 129.905 311.246 134.331 313.25 138.467C315.252 142.601 317.625 165.077 312.256 166.678Z" fill="#FDBD90"/>
<path d="M303.819 131.185C303.819 131.185 303.689 146.228 292.607 153.531C286.122 157.802 285.817 162.175 285.817 162.175C285.817 162.175 281.978 149.301 281.369 139.619C281.369 139.619 297.916 124.814 303.819 131.185Z" fill="#163560"/>
<path d="M302.502 133.841C302.502 133.841 308.687 135.898 311.438 138.174C315.511 141.545 316.574 152.505 316.088 155.234C316.088 155.234 317.199 136.184 311.065 131.329C304.559 126.184 302.502 133.841 302.502 133.841" fill="#163560"/>
<path d="M259.649 197.48C261.779 202.557 264.242 207.33 266.856 211.653C276.84 228.155 289.049 238.125 293.459 233.479C294.677 232.194 297.756 230.326 294.538 223.417C292.052 218.079 288.974 211.404 285.955 204.834C279.727 191.286 273.753 178.189 273.753 178.189C271.851 178.189 251.85 178.886 259.649 197.48" fill="#FDBD90"/>
<path d="M280.537 218.663C281.222 218.253 318.866 227.392 330.523 230.237C332.663 230.759 333.927 231.07 333.927 231.07V235.462C333.927 235.462 294.978 237.29 288.894 234.496C282.81 231.702 277.003 225.203 277.003 225.203L280.537 218.663" fill="#FDBD90"/>
<path d="M259.649 197.48C261.779 202.557 264.242 207.33 266.856 211.653C274.99 210.6 282.5 206.801 285.955 204.834C279.727 191.286 273.753 178.189 273.753 178.189C271.851 178.189 251.85 178.886 259.649 197.48" fill="#F4CDE0"/>
<path d="M330.523 230.237C330.523 230.237 342.925 226.676 346.375 227.66C348.81 228.354 351.92 231.954 353.54 234.015C354.012 234.617 353.576 235.497 352.811 235.488C350.736 235.467 347.382 235.332 345.626 234.409C343.967 233.539 341.5 235.456 338.751 235.467C336.642 235.476 333.927 235.462 333.927 235.462L330.523 230.237" fill="#FFB27D"/>
<path d="M354.923 408.44C354.923 408.44 360.808 400.507 368.243 399.019C368.243 399.019 380.418 404.606 381.501 414.526H361.266L354.923 408.44" fill="#163560"/>
<path d="M324.172 385.952C324.852 385.908 335.201 384.001 337.152 387.518C339.45 391.663 339.379 401.554 333.843 404.283C332.571 404.911 331.034 404.288 330.537 402.96L324.172 385.952" fill="#163560"/>
<path d="M266.319 274.452C260.852 276.95 250.697 279.758 241.517 280.756C243.768 280.358 278.478 266.883 269.659 255.076C262.361 245.302 259.457 239.619 268.514 238.174C271.794 237.649 285.155 240.974 288.999 241.618C288.768 242.312 288.699 243.104 288.832 244.018C291.345 261.328 275.148 270.415 266.319 274.452" fill="#F2C6DB"/>
<path d="M351.215 235.071C351.215 235.071 347.971 230.887 342.698 231.489C337.425 232.091 333.927 235.462 333.927 235.462L351.215 235.071" fill="#6683D3"/>
<path d="M519.614 245.302H262.361C260.02 245.302 258.121 243.404 258.121 241.061V239.273C258.121 236.93 260.02 235.032 262.361 235.032H519.614C521.958 235.032 523.857 236.93 523.857 239.273V241.061C523.857 243.404 521.958 245.302 519.614 245.302Z" fill="#163560"/>
<path d="M260.758 414.51C259.301 414.332 258.616 412.972 258.799 411.55L280.959 240.166L287.068 240.523L262.831 412.649C262.638 413.752 261.892 414.652 260.758 414.51" fill="#163560"/>
<path d="M518.146 414.51C519.603 414.332 520.288 412.972 520.105 411.55L497.943 240.166L491.836 240.523L516.073 412.649C516.266 413.752 517.012 414.652 518.146 414.51" fill="#163560"/>
<path d="M347.3 228.04L355.136 230.333C355.136 230.333 354.685 231.146 353.198 231.011C351.712 230.875 348.422 230.379 348.422 230.379L347.3 228.04Z" fill="#FFB27D"/>
<path d="M414.83 409.516L486.247 406.839C486.71 406.09 487.108 405.357 487.441 404.641L487.445 404.638C487.697 404.1 487.912 403.571 488.096 403.049C490.746 395.531 486.433 389.987 480.445 387.924C473.488 385.526 468.034 390.644 468.034 390.644C468.034 390.644 454.982 379.247 431.46 380.914C417.76 381.887 411.034 391.551 407.805 399.456C405.798 404.368 409.525 409.713 414.83 409.516Z" fill="#2B478B"/>
<path d="M478.06 387.372C478.06 387.372 481.473 382.904 486.135 383.172C486.135 383.172 487.827 386.982 484.139 391.991C480.452 397.001 478.06 387.372 478.06 387.372Z" fill="#2B478B"/>
<path d="M484.346 395.966C484.346 395.966 489.06 392.897 493.362 394.711C493.362 394.711 493.68 398.87 488.526 402.355C483.374 405.841 484.346 395.966 484.346 395.966Z" fill="#2B478B"/>
<path d="M417.001 402.685C417.001 402.685 423.963 405.447 432.019 403.244C440.533 400.915 462.287 398.661 465.613 407.611L416.589 409.58L417.001 402.685" fill="#2E3552"/>
<path d="M481.389 404.272L490.379 404.819C490.379 404.819 493.877 403.585 494.88 403.768C495.884 403.949 496.715 406.445 496.715 406.445L482.598 406.974L481.389 404.272Z" fill="#2B478B"/>
<path d="M414.786 401.38C414.786 401.38 420.944 406.095 429.511 404.279C438.08 402.463 455.844 402.227 458.409 404.158C458.409 404.158 460.835 405.374 459.243 407.206C457.651 409.035 444.496 408.401 438.98 408.742C434.951 408.992 414.411 410.776 411.353 408.786C408.295 406.798 414.786 401.38 414.786 401.38" fill="#2B478B"/>
<path d="M480.745 398.906C480.745 398.906 478.759 396.703 478.429 397.214C478.099 397.725 478.019 399.14 478.514 399.454C479.006 399.767 481.233 400.088 480.745 398.906" fill="#2E3552"/>
<path d="M478.349 403.411C478.674 403.752 487.44 404.641 487.44 404.641L487.445 404.638C487.697 404.1 487.912 403.571 488.096 403.049C486.348 404.725 478.024 403.067 478.349 403.411" fill="#2E3552"/>
<path d="M483.393 389.806C483.393 389.806 485.525 389.062 485.15 384.979C485.15 384.979 481.473 385.67 480.356 386.93C479.235 388.189 480.385 387.821 481.515 388.384C482.642 388.947 482.923 390.543 483.393 389.806" fill="#2E3552"/>
<path d="M488.785 399.568C488.785 399.568 491.041 399.651 492.177 395.712C492.177 395.712 488.499 395.018 486.998 395.785C485.498 396.552 486.703 396.626 487.55 397.56C488.396 398.497 488.077 400.084 488.785 399.568" fill="#2E3552"/>
<path d="M477.3 402.985C477.3 402.985 473.962 402.557 472.803 401.217C472.803 401.217 474.146 401.554 474.748 401.366C474.748 401.366 472.512 400.807 471.986 400.04C471.459 399.275 471.101 398.641 470.407 399.296C469.711 399.948 468.733 401.922 469.587 402.554C470.442 403.186 477.3 402.985 477.3 402.985" fill="white"/>
<path d="M399.219 414.481C399.219 414.481 399.854 404.966 412.278 403.899C424.702 402.832 443.286 406.67 453.058 406.283C462.83 405.896 492.086 405.078 496.715 406.445C501.342 407.81 506.514 409.25 505.942 414.563L399.219 414.481Z" fill="#D74C8A"/>
<path d="M700.608 417.165H61.0563C60.5549 417.165 60.1447 416.755 60.1447 416.253V415.397C60.1447 414.895 60.5549 414.485 61.0563 414.485H700.608C701.11 414.485 701.52 414.895 701.52 415.397V416.253C701.52 416.755 701.11 417.165 700.608 417.165Z" fill="#474F6F"/>
<path d="M437.388 23.6762L437.393 23.674C443.955 22.0755 450.676 20.8893 457.493 20.1061C450.671 20.8893 443.953 22.0778 437.388 23.6762" fill="#374774"/>
<path d="M156.836 284.235C156.097 282.325 156.597 281.62 157.423 281.468C158.347 281.301 159.608 281.94 160.406 283.033C160.496 284.386 160.819 285.677 161.336 286.868C160.043 286.552 157.42 285.742 156.836 284.235ZM183.589 276.263H178.564H160.472C160.412 276.742 160.377 277.227 160.377 277.72V279.952C158.836 279.627 156.709 279.364 155.615 280.039C153.781 281.173 154.341 284.489 156.067 286.539C157.794 288.588 163.294 289.941 163.294 289.941L163.293 289.939C164.396 291.192 165.765 292.202 167.305 292.891H167.282V294.315H176.795V292.891H176.755C180.826 291.068 183.684 286.983 183.684 282.256V277.72C183.684 277.227 183.649 276.742 183.589 276.263" fill="#2C3A64"/>
</svg>
